<?xml version="1.0" encoding="utf-8"?>
<!-- Generator: Adobe Illustrator 21.1.0, SVG Export Plug-In . SVG Version: 6.00 Build 0)  -->
<!DOCTYPE svg PUBLIC "-//W3C//DTD SVG 1.1//EN" "http://www.w3.org/Graphics/SVG/1.1/DTD/svg11.dtd">
<svg version="1.1" id="Layer_1" xmlns="http://www.w3.org/2000/svg" xmlns:xlink="http://www.w3.org/1999/xlink" x="0px" y="0px"
	 viewBox="0 0 332.5 53.3" style="enable-background:new 0 0 332.5 53.3;" xml:space="preserve">
<style type="text/css">
	.st0{clip-path:url(#SVGID_2_);fill:#0F5A79;}
</style>
<g>
	<defs>
		<rect id="SVGID_1_" y="0" width="332.5" height="53.3"/>
	</defs>
	<clipPath id="SVGID_2_">
		<use xlink:href="#SVGID_1_"  style="overflow:visible;"/>
	</clipPath>
	<path class="st0" d="M99.2,5.6v15.5l0.4,0.1L110.4,5c0.5-0.7,1.1-1.2,2-1.4c0.8-0.2,2-0.3,3.5-0.3h3.3c3.3,0,5,0.4,5,1.3
		c0,0.5-0.3,1.1-0.8,1.8l-12.5,17.8l14.6,23.1c0.5,0.8,0.7,1.5,0.7,1.9c0,0.9-1.7,1.3-5.1,1.3h-3.8c-2.9,0-4.7-0.6-5.4-1.7
		L99.5,28.2l-0.4,0.1v19.4c0,1.9-1.8,2.9-5.4,2.9h-2.5c-3.6,0-5.4-1-5.4-2.9v-42c0-1.9,1.8-2.9,5.4-2.9h2.5
		C97.4,2.8,99.2,3.7,99.2,5.6"/>
	<path class="st0" d="M158.6,4.2c0.7,1,1.1,2.1,1.1,3.4c0,1.3-0.3,2.8-0.8,4.7c-0.5,1.9-1.2,2.8-2,2.8c-0.4,0-1-0.1-1.9-0.4
		c-0.9-0.2-1.7-0.4-2.3-0.4c-1.6,0-3,0.5-4.3,1.4c-1.2,0.9-2.2,2-2.9,3.1v28.8c0,1.9-1.8,2.9-5.4,2.9h-2.5c-3.6,0-5.4-1-5.4-2.9
		V19.3c0-2.6-0.1-4.6-0.2-6.1c-0.1-1.4-0.3-3-0.6-4.7c-0.2-0.8-0.3-1.5-0.3-1.9c0-1,1.2-1.7,3.6-2.2c2.4-0.5,4.6-0.7,6.4-0.7
		c1.1,0,1.8,0.4,2.2,1.2c0.4,0.8,0.7,1.7,0.9,2.6c0.2,1,0.3,1.6,0.4,2c1.1-2.1,2.5-3.8,4-5c1.5-1.2,3.5-1.8,5.8-1.8
		C156.5,2.8,157.8,3.3,158.6,4.2"/>
	<path class="st0" d="M196,6.8c3,2.7,4.6,6.3,4.6,11v16.9c0,2.8,0.1,4.8,0.2,6.3c0.1,1.4,0.3,3,0.6,4.8c0.2,0.8,0.3,1.4,0.3,2
		c0,1-1.2,1.7-3.6,2.2c-2.4,0.5-4.6,0.7-6.4,0.7c-1.1,0-1.8-0.4-2.2-1.3c-0.4-0.9-0.7-1.8-0.9-2.8c-0.2-1-0.3-1.7-0.4-2.1
		c-0.4,0.7-1.1,1.5-2.2,2.6c-1.1,1-2.6,2-4.5,2.9c-1.9,0.9-4.1,1.3-6.5,1.3c-4.6,0-8-1.2-10.1-3.6c-2.1-2.4-3.2-5.6-3.2-9.5
		c0-4.8,1.8-8.8,5.2-11.9c3.5-3.2,10.3-4.8,20.5-4.8v-3c0-1.7-0.6-3-1.7-3.9c-1.1-0.8-2.9-1.3-5.3-1.3c-2,0-3.8,0.2-5.3,0.6
		c-1.5,0.4-2.9,0.9-4.1,1.4c-1.2,0.5-1.9,0.8-2.1,0.8c-0.6,0-1.3-0.4-2-1.3c-0.7-0.9-1.3-1.9-1.9-3.1c-0.5-1.2-0.8-2.1-0.8-2.7
		c0-1,0.7-2,2.2-3c1.5-1,3.6-1.7,6.2-2.3c2.6-0.6,5.5-0.9,8.7-0.9C188,2.8,192.9,4.1,196,6.8 M174.7,36.7c0,1.2,0.4,2.2,1.2,2.9
		c0.8,0.7,1.9,1.1,3.3,1.1c1.7,0,3.3-0.5,4.8-1.6c1.5-1.1,2.6-2.4,3.3-4V30C178.9,30,174.7,32.2,174.7,36.7"/>
	<path class="st0" d="M220.7,5.6v15.5l0.4,0.1L231.9,5c0.5-0.7,1.1-1.2,2-1.4c0.8-0.2,2-0.3,3.5-0.3h3.3c3.3,0,5,0.4,5,1.3
		c0,0.5-0.3,1.1-0.8,1.8l-12.5,17.8L247,47.3c0.5,0.8,0.7,1.5,0.7,1.9c0,0.9-1.7,1.3-5.1,1.3h-3.8c-2.9,0-4.7-0.6-5.4-1.7L221,28.2
		l-0.4,0.1v19.4c0,1.9-1.8,2.9-5.4,2.9h-2.5c-3.6,0-5.4-1-5.4-2.9v-42c0-1.9,1.8-2.9,5.4-2.9h2.5C218.9,2.8,220.7,3.7,220.7,5.6"/>
	<path class="st0" d="M284.9,9.2c3.1,4.3,4.7,9.9,4.7,16.7c0,0.7-0.6,1.8-1.8,3.2c-1.2,1.4-2.1,2.1-2.7,2.1h-22.9
		c0.3,3.4,1.3,5.8,3,7.3c1.7,1.4,4.2,2.2,7.3,2.2c1.7,0,3.2-0.2,4.6-0.6c1.4-0.4,2.8-0.9,4.3-1.5c1-0.5,1.6-0.7,2-0.7
		c0.6,0,1.3,0.4,2,1.3c0.7,0.9,1.4,1.9,1.9,3c0.5,1.1,0.8,2,0.8,2.6c0,1.4-0.9,2.6-2.8,3.5c-1.9,1-4.1,1.7-6.6,2.2
		c-2.6,0.5-4.8,0.7-6.7,0.7c-7.9,0-13.8-2.1-17.6-6.3c-3.9-4.2-5.8-10.1-5.8-17.5c0-8.4,1.9-14.6,5.8-18.6c3.9-3.9,9.2-5.9,16-5.9
		C276.9,2.8,281.8,4.9,284.9,9.2 M262.2,22.3h14.5c0-2.7-0.5-4.9-1.6-6.6c-1.1-1.6-2.7-2.5-4.8-2.5
		C265.9,13.3,263.2,16.3,262.2,22.3"/>
	<path class="st0" d="M329.3,6.3c2.2,2.4,3.2,6,3.2,11v30.4c0,1.9-1.8,2.9-5.4,2.9h-2.5c-3.6,0-5.4-1-5.4-2.9V19.3
		c0-1.9-0.4-3.2-1.3-4.2c-0.8-0.9-2.2-1.4-4.1-1.4c-1.6,0-3,0.5-4.3,1.6c-1.2,1-2.2,2.3-2.9,3.6v28.8c0,1.9-1.8,2.9-5.4,2.9h-2.5
		c-3.6,0-5.4-1-5.4-2.9V19.3c0-2.6-0.1-4.6-0.2-6.1c-0.1-1.4-0.3-3-0.6-4.7c-0.2-0.8-0.3-1.5-0.3-1.9c0-1,1.2-1.7,3.6-2.2
		c2.4-0.5,4.6-0.7,6.4-0.7c1.1,0,1.8,0.4,2.2,1.2c0.4,0.8,0.7,1.7,0.9,2.6c0.2,1,0.3,1.6,0.4,2c1.4-1.9,3.3-3.5,5.7-4.8
		c2.4-1.3,4.9-2,7.6-2C323.8,2.8,327.2,3.9,329.3,6.3"/>
</g>
<g>
	<defs>
		<path id="SVGID_3_" d="M40.9,0C33,0,25.1,6.1,27.2,18.4c0.8,4.5,2.9,10.2,2.8,14c-1,1.8-6.5,3.4-9.5,1.6
			c-8.7-5.4,7.4-21.4-0.8-30.3c-4-4.3-9.6-2.1-11.4,0.5C7.6,5.3,7.6,6.9,7.6,6.9C9,4.2,15.6,1.9,17.5,7c2.5,6.6-6.3,15.9-5.4,25.1
			c0.7,7.4,10.7,14.7,20.1,7.1c-0.2,2.3-1.4,5.6-4.9,6.4c-3.7,0.8-7.3-1.1-10.8-3c-3.5-1.9-7-3.8-10.7-3c-7.9,1.7-7.2,11.6-1.4,13.7
			c-2.3-2.4-3.8-9.3,2.4-9.5c2.5-0.1,6.1,3.4,9.8,5.7c3,1.9,8.5,5,14.9,2.7c8.1-3,9.3-13.6,9.3-13.6c0,0,0,0,0,0
			c0,0,1.2,10.7,9.3,13.6c6.3,2.3,11.9-0.8,14.9-2.7c3.6-2.3,7.2-5.8,9.8-5.7c6.2,0.2,4.7,7.1,2.4,9.5c5.9-2.2,6.6-12-1.4-13.7
			c-3.7-0.8-7.2,1.1-10.7,3c-3.5,1.9-7.1,3.8-10.8,3c-3.5-0.8-4.6-4.1-4.9-6.4c9.3,7.5,19.3,0.3,20.1-7.1c0.9-9.1-7.9-18.5-5.4-25.1
			c1.9-5.1,8.5-2.9,9.9-0.1c0,0.1,0-1.5-0.7-2.7c-1.7-2.6-7.4-4.8-11.4-0.5c-8.2,8.8,7.9,24.9-0.8,30.3c-3,1.9-8.5,0.2-9.5-1.6
			c-0.1-3.7,2.1-9.5,2.8-14C56.7,6.1,48.8,0,40.9,0L40.9,0z"/>
	</defs>
	<linearGradient id="SVGID_4_" gradientUnits="userSpaceOnUse" x1="24.6341" y1="61.0535" x2="57.6341" y2="5.0535">
		<stop  offset="0" style="stop-color:#98D2D9"/>
		<stop  offset="7.007580e-02" style="stop-color:#98D2D9"/>
		<stop  offset="0.2429" style="stop-color:#7EBBC7"/>
		<stop  offset="0.6105" style="stop-color:#3B8198"/>
		<stop  offset="0.839" style="stop-color:#0F5A79"/>
		<stop  offset="1" style="stop-color:#0F5A79"/>
	</linearGradient>
	<use xlink:href="#SVGID_3_"  style="overflow:visible;fill:url(#SVGID_4_);"/>
	<clipPath id="SVGID_5_">
		<use xlink:href="#SVGID_3_"  style="overflow:visible;"/>
	</clipPath>
</g>
</svg>
